<mxfile host="app.diagrams.net" modified="2022-03-10T23:25:51.590Z" agent="5.0 (Windows NT 10.0; Win64; x64) AppleWebKit/537.36 (KHTML, like Gecko) Chrome/99.0.4844.51 Safari/537.36" etag="Z90wfYbBk5mtas-_Mtom" version="17.1.1" type="github">
  <diagram id="yz-zjX-ozQ3gpO2Xi7Yj" name="Page-1">
    <mxGraphModel dx="868" dy="482" grid="1" gridSize="10" guides="1" tooltips="1" connect="1" arrows="1" fold="1" page="1" pageScale="1" pageWidth="827" pageHeight="1169" math="0" shadow="0">
      <root>
        <mxCell id="0" />
        <mxCell id="1" parent="0" />
        <mxCell id="qeK3eL-iH4auFiqdQ0pX-1" value="Locador" style="swimlane;horizontal=0;startSize=23;" vertex="1" parent="1">
          <mxGeometry x="40" y="10" width="600" height="200" as="geometry">
            <mxRectangle x="40" y="40" width="30" height="70" as="alternateBounds" />
          </mxGeometry>
        </mxCell>
        <mxCell id="qeK3eL-iH4auFiqdQ0pX-2" style="edgeStyle=orthogonalEdgeStyle;rounded=0;orthogonalLoop=1;jettySize=auto;html=1;exitX=0.5;exitY=0.5;exitDx=0;exitDy=0;exitPerimeter=0;entryX=0;entryY=0.5;entryDx=0;entryDy=0;" edge="1" parent="qeK3eL-iH4auFiqdQ0pX-1" source="qeK3eL-iH4auFiqdQ0pX-3" target="qeK3eL-iH4auFiqdQ0pX-4">
          <mxGeometry relative="1" as="geometry" />
        </mxCell>
        <mxCell id="qeK3eL-iH4auFiqdQ0pX-3" value="" style="shape=umlActor;verticalLabelPosition=bottom;verticalAlign=top;html=1;outlineConnect=0;" vertex="1" parent="qeK3eL-iH4auFiqdQ0pX-1">
          <mxGeometry x="50" y="70" width="30" height="60" as="geometry" />
        </mxCell>
        <mxCell id="qeK3eL-iH4auFiqdQ0pX-4" value="Informar dados obrigatÃ³rios" style="rounded=1;whiteSpace=wrap;html=1;" vertex="1" parent="qeK3eL-iH4auFiqdQ0pX-1">
          <mxGeometry x="120" y="70" width="120" height="60" as="geometry" />
        </mxCell>
        <mxCell id="qeK3eL-iH4auFiqdQ0pX-5" value="Conta criada com sucesso" style="rounded=1;whiteSpace=wrap;html=1;" vertex="1" parent="qeK3eL-iH4auFiqdQ0pX-1">
          <mxGeometry x="450" y="60" width="120" height="60" as="geometry" />
        </mxCell>
        <mxCell id="qeK3eL-iH4auFiqdQ0pX-6" value="Auto-Rent" style="swimlane;" vertex="1" parent="1">
          <mxGeometry x="40" y="300" width="600" height="240" as="geometry" />
        </mxCell>
        <mxCell id="qeK3eL-iH4auFiqdQ0pX-7" style="edgeStyle=orthogonalEdgeStyle;rounded=0;orthogonalLoop=1;jettySize=auto;html=1;entryX=0;entryY=0.5;entryDx=0;entryDy=0;" edge="1" parent="qeK3eL-iH4auFiqdQ0pX-6" source="qeK3eL-iH4auFiqdQ0pX-8" target="qeK3eL-iH4auFiqdQ0pX-9">
          <mxGeometry relative="1" as="geometry" />
        </mxCell>
        <mxCell id="qeK3eL-iH4auFiqdQ0pX-8" value="Checagem dos dados cadastrais" style="rounded=1;whiteSpace=wrap;html=1;" vertex="1" parent="qeK3eL-iH4auFiqdQ0pX-6">
          <mxGeometry x="120" y="105" width="120" height="60" as="geometry" />
        </mxCell>
        <mxCell id="qeK3eL-iH4auFiqdQ0pX-9" value="Dados &lt;br&gt;validos" style="rhombus;whiteSpace=wrap;html=1;fillColor=#fff2cc;strokeColor=#d6b656;" vertex="1" parent="qeK3eL-iH4auFiqdQ0pX-6">
          <mxGeometry x="470" y="95" width="80" height="80" as="geometry" />
        </mxCell>
        <mxCell id="qeK3eL-iH4auFiqdQ0pX-10" style="edgeStyle=orthogonalEdgeStyle;rounded=0;orthogonalLoop=1;jettySize=auto;html=1;entryX=0.5;entryY=0;entryDx=0;entryDy=0;" edge="1" parent="1" source="qeK3eL-iH4auFiqdQ0pX-4" target="qeK3eL-iH4auFiqdQ0pX-8">
          <mxGeometry relative="1" as="geometry" />
        </mxCell>
        <mxCell id="qeK3eL-iH4auFiqdQ0pX-11" style="edgeStyle=orthogonalEdgeStyle;rounded=0;orthogonalLoop=1;jettySize=auto;html=1;entryX=0.5;entryY=1;entryDx=0;entryDy=0;" edge="1" parent="1" source="qeK3eL-iH4auFiqdQ0pX-9" target="qeK3eL-iH4auFiqdQ0pX-5">
          <mxGeometry relative="1" as="geometry" />
        </mxCell>
        <mxCell id="qeK3eL-iH4auFiqdQ0pX-12" value="Sucesso" style="edgeLabel;html=1;align=center;verticalAlign=middle;resizable=0;points=[];" vertex="1" connectable="0" parent="qeK3eL-iH4auFiqdQ0pX-11">
          <mxGeometry x="0.176" y="-1" relative="1" as="geometry">
            <mxPoint as="offset" />
          </mxGeometry>
        </mxCell>
        <mxCell id="qeK3eL-iH4auFiqdQ0pX-13" style="edgeStyle=orthogonalEdgeStyle;rounded=0;orthogonalLoop=1;jettySize=auto;html=1;exitX=0;exitY=0;exitDx=0;exitDy=0;entryX=1;entryY=0.5;entryDx=0;entryDy=0;" edge="1" parent="1" source="qeK3eL-iH4auFiqdQ0pX-9" target="qeK3eL-iH4auFiqdQ0pX-4">
          <mxGeometry relative="1" as="geometry" />
        </mxCell>
        <mxCell id="qeK3eL-iH4auFiqdQ0pX-14" value="Dados recusados" style="edgeLabel;html=1;align=center;verticalAlign=middle;resizable=0;points=[];" vertex="1" connectable="0" parent="qeK3eL-iH4auFiqdQ0pX-13">
          <mxGeometry x="0.1074" y="-4" relative="1" as="geometry">
            <mxPoint as="offset" />
          </mxGeometry>
        </mxCell>
      </root>
    </mxGraphModel>
  </diagram>
</mxfile>
